<svg width="31" height="31" viewBox="0 0 31 31" fill="none" xmlns="http://www.w3.org/2000/svg">
<path fill-rule="evenodd" clip-rule="evenodd" d="M5.28505 5.17711C8.00398 2.45499 11.6199 0.95521 15.4722 0.953613C23.4101 0.953613 29.8704 7.41374 29.8736 15.3538C29.8747 17.892 29.2116 20.3696 27.9513 22.5536L29.9944 30.0161L22.36 28.0135C20.2564 29.1609 17.8881 29.7656 15.478 29.7664H15.472C7.53498 29.7664 1.07397 23.3057 1.07095 15.3653C1.06936 11.5172 2.56594 7.89906 5.28505 5.17711ZM15.4722 27.3343H15.4771C17.6249 27.3334 19.7313 26.7562 21.5694 25.6658L22.0063 25.4063L26.5366 26.5947L25.3274 22.1777L25.6121 21.7249C26.8104 19.819 27.4431 17.6163 27.442 15.3547C27.4395 8.75511 22.0698 3.38589 15.4674 3.38589C12.2702 3.38696 9.26483 4.63361 7.00496 6.89614C4.7451 9.15866 3.50128 12.166 3.50235 15.3644C3.50519 21.9645 8.87458 27.3343 15.4722 27.3343Z" fill="#424349"/>
<path fill-rule="evenodd" clip-rule="evenodd" d="M21.9702 18.3695C21.6104 18.1893 19.8412 17.3191 19.5113 17.1988C19.1817 17.0787 18.9415 17.0189 18.7019 17.379C18.4619 17.7391 17.7724 18.5497 17.5624 18.7897C17.3524 19.0299 17.1427 19.0601 16.7828 18.8799C16.4229 18.6998 15.2635 18.3197 13.8889 17.0938C12.8193 16.1396 12.0972 14.9613 11.8872 14.6012C11.6775 14.2407 11.8854 14.0648 12.045 13.8668C12.4346 13.3831 12.8246 12.876 12.9446 12.636C13.0646 12.3958 13.0045 12.1856 12.9144 12.0055C12.8246 11.8255 12.105 10.0543 11.8052 9.33361C11.5129 8.63224 11.2165 8.72696 10.9955 8.71596C10.7858 8.7055 10.5458 8.70337 10.3058 8.70337C10.066 8.70337 9.67609 8.7933 9.34616 9.15375C9.0164 9.51401 8.08691 10.3844 8.08691 12.1556C8.08691 13.9268 9.37631 15.6378 9.55618 15.878C9.73605 16.1182 12.0937 19.7528 15.7032 21.3113C16.5618 21.6823 17.2319 21.9035 17.7547 22.0694C18.6167 22.3433 19.401 22.3046 20.0211 22.212C20.7125 22.1086 22.1499 21.3414 22.45 20.501C22.7498 19.6603 22.7498 18.94 22.6597 18.7897C22.5699 18.6397 22.3299 18.5497 21.9702 18.3695Z" fill="#424349"/>
</svg>
