<svg width="39" height="39" viewBox="0 0 39 39" fill="none" xmlns="http://www.w3.org/2000/svg">
<circle cx="19.5" cy="19.5" r="19" stroke="#424349"/>
<path d="M17.676 20.4879C17.619 20.4879 16.365 20.4879 15.795 20.4879C15.491 20.4879 15.396 20.3739 15.396 20.0889C15.396 19.3289 15.396 18.5499 15.396 17.7899C15.396 17.4859 15.51 17.3909 15.795 17.3909H17.676C17.676 17.3339 17.676 16.2319 17.676 15.7189C17.676 14.9589 17.809 14.2369 18.189 13.5719C18.588 12.8879 19.158 12.4319 19.88 12.1659C20.355 11.9949 20.83 11.9189 21.343 11.9189H23.205C23.471 11.9189 23.585 12.0329 23.585 12.2989V14.4649C23.585 14.7309 23.471 14.8449 23.205 14.8449C22.692 14.8449 22.179 14.8449 21.666 14.8639C21.153 14.8639 20.887 15.1109 20.887 15.6429C20.868 16.2129 20.887 16.7639 20.887 17.3529H23.091C23.395 17.3529 23.509 17.4669 23.509 17.7709V20.0699C23.509 20.3739 23.414 20.4689 23.091 20.4689C22.407 20.4689 20.944 20.4689 20.887 20.4689V26.6629C20.887 26.9859 20.792 27.0999 20.45 27.0999C19.652 27.0999 18.873 27.0999 18.075 27.0999C17.79 27.0999 17.676 26.9859 17.676 26.7009C17.676 24.7059 17.676 20.5449 17.676 20.4879Z" fill="#424349"/>
</svg>
