<svg width="39" height="39" viewBox="0 0 39 39" fill="none" xmlns="http://www.w3.org/2000/svg">
<circle cx="19.5" cy="19.5" r="19" stroke="#424349"/>
<path d="M19.5 16.5962C17.8977 16.5962 16.5962 17.8977 16.5962 19.5C16.5962 21.1024 17.8977 22.407 19.5 22.407C21.1024 22.407 22.407 21.1024 22.407 19.5C22.407 17.8977 21.1024 16.5962 19.5 16.5962Z" fill="#424349"/>
<path d="M23.8827 11.5835H15.1174C13.1699 11.5835 11.5834 13.17 11.5834 15.1175V23.8828C11.5834 25.8335 13.1699 27.4168 15.1174 27.4168H23.8827C25.8334 27.4168 27.4167 25.8335 27.4167 23.8828V15.1175C27.4167 13.17 25.8334 11.5835 23.8827 11.5835ZM19.5 24.6302C16.6722 24.6302 14.37 22.328 14.37 19.5002C14.37 16.6723 16.6722 14.3733 19.5 14.3733C22.3279 14.3733 24.63 16.6723 24.63 19.5002C24.63 22.328 22.3279 24.6302 19.5 24.6302ZM24.7377 15.3043C24.1392 15.3043 23.6515 14.8198 23.6515 14.2213C23.6515 13.6228 24.1392 13.1352 24.7377 13.1352C25.3362 13.1352 25.8239 13.6228 25.8239 14.2213C25.8239 14.8198 25.3362 15.3043 24.7377 15.3043Z" fill="#424349"/>
</svg>
