<svg width="39" height="39" viewBox="0 0 39 39" fill="none" xmlns="http://www.w3.org/2000/svg">
<circle cx="19.5" cy="19.5" r="19" stroke="#424349"/>
<g clip-path="url(#clip0_231_580)">
<path d="M28.331 20.9988C28.8978 16.2275 28.0587 13.2152 26.545 11.8527L26.5458 11.8519C24.1027 9.5252 15.8519 9.18083 12.9291 11.9564C11.6165 13.3141 11.1542 15.3067 11.1035 17.7736C11.0529 20.2412 10.9927 24.8637 15.3001 26.1177H15.3041L15.3001 28.0328C15.3001 28.0328 15.2709 28.8086 15.7664 28.9646C16.3333 29.1482 16.5898 28.788 18.3528 26.6822C21.301 26.9379 23.5651 26.3521 23.8224 26.2666C24.4178 26.0671 27.7863 25.6214 28.331 20.9988ZM18.6434 25.3348C18.6434 25.3348 16.7774 27.6615 16.1971 28.2655C16.0071 28.4619 15.7989 28.4437 15.8021 28.0542C15.8021 27.7985 15.8163 24.8748 15.8163 24.8748C12.1644 23.8282 12.3797 19.8921 12.4193 17.833C12.4589 15.773 12.8357 14.086 13.9472 12.95C16.5114 10.5457 23.7449 11.0832 25.5879 12.8154C27.8409 14.8127 27.039 20.4557 27.0437 20.6481C26.5806 24.5067 23.8509 24.7513 23.349 24.9184C23.1345 24.9896 21.1434 25.5018 18.6434 25.3348Z" fill="#424349"/>
<path d="M19.6757 13.4019C19.3709 13.4019 19.3709 13.8769 19.6757 13.8808C22.0404 13.899 23.9879 15.5473 24.0093 18.5706C24.0093 18.8897 24.4764 18.8857 24.4724 18.5667C24.4471 15.309 22.3199 13.4201 19.6757 13.4019Z" fill="#424349"/>
<path d="M22.7862 18.0695C22.7791 18.3846 23.2454 18.3996 23.2493 18.0806C23.2881 16.2843 22.1806 14.8047 20.0993 14.6487C19.7945 14.6265 19.7628 15.1055 20.0668 15.1277C21.8718 15.2646 22.8226 16.4964 22.7862 18.0695Z" fill="#424349"/>
<path d="M22.2873 20.1129C21.8963 19.8865 21.4981 20.0274 21.3334 20.2499L20.989 20.6956C20.8141 20.922 20.4871 20.8919 20.4871 20.8919C18.101 20.261 17.4629 17.764 17.4629 17.764C17.4629 17.764 17.4336 17.426 17.6521 17.2447L18.0828 16.8885C18.2981 16.7175 18.4343 16.3058 18.215 15.9012C17.6292 14.8428 17.2357 14.4778 17.0354 14.1976C16.8248 13.934 16.5082 13.8746 16.1788 14.0527H16.1717C15.4869 14.4533 14.7372 15.203 14.9771 15.9749C15.3864 16.7887 16.1385 19.383 18.5356 21.3432C19.6622 22.2702 21.445 23.2202 22.2018 23.4395L22.209 23.4506C22.9547 23.6992 23.6799 22.9202 24.067 22.2148V22.2092C24.2388 21.868 24.1818 21.545 23.9308 21.3337C23.4859 20.8998 22.8146 20.4209 22.2873 20.1129Z" fill="#424349"/>
<path d="M20.4254 16.416C21.1862 16.4603 21.5552 16.8577 21.5947 17.6739C21.609 17.993 22.0721 17.9708 22.0579 17.6518C22.0072 16.5862 21.4514 15.9924 20.4508 15.937C20.146 15.9188 20.1175 16.3978 20.4254 16.416Z" fill="#424349"/>
</g>
<defs>
<clipPath id="clip0_231_580">
<rect width="19" height="19" fill="white" transform="translate(10 10)"/>
</clipPath>
</defs>
</svg>
