<svg width="39" height="39" viewBox="0 0 39 39" fill="none" xmlns="http://www.w3.org/2000/svg">
<circle cx="19.5" cy="19.5" r="19" stroke="#424349"/>
<path d="M27.6497 15.4191C27.4538 14.6909 26.8796 14.1168 26.1515 13.9207C24.8211 13.5566 19.4998 13.5566 19.4998 13.5566C19.4998 13.5566 14.1787 13.5566 12.8483 13.9068C12.1342 14.1028 11.546 14.691 11.3501 15.4191C11 16.7493 11 19.508 11 19.508C11 19.508 11 22.2806 11.3501 23.5969C11.5462 24.325 12.1202 24.8992 12.8485 25.0953C14.1927 25.4594 19.5 25.4594 19.5 25.4594C19.5 25.4594 24.8211 25.4594 26.1515 25.1092C26.8797 24.9132 27.4538 24.3391 27.6499 23.6109C27.9999 22.2806 27.9999 19.522 27.9999 19.522C27.9999 19.522 28.0139 16.7493 27.6497 15.4191Z" fill="#424349"/>
<path d="M17.8055 22.0562L22.2305 19.5076L17.8055 16.959V22.0562Z" fill="white"/>
</svg>
