<svg width="45" height="45" viewBox="0 0 45 45" fill="none" xmlns="http://www.w3.org/2000/svg">
<path d="M36.9502 44.2316C27.3474 45.2561 17.6628 45.2561 8.05997 44.2316C6.19519 44.0347 4.45425 43.2045 3.12739 41.8795C1.80052 40.5545 0.967917 38.8148 0.768377 36.9502C-0.256126 27.3474 -0.256126 17.6628 0.768377 8.05997C0.9653 6.19519 1.79546 4.45425 3.12046 3.12739C4.44547 1.80052 6.18524 0.967917 8.04975 0.768377C17.6526 -0.256126 27.3372 -0.256126 36.94 0.768377C38.8048 0.9653 40.5457 1.79546 41.8726 3.12046C43.1995 4.44547 44.0321 6.18524 44.2316 8.04975C45.2561 17.6526 45.2561 27.3372 44.2316 36.94C44.0347 38.8048 43.2045 40.5457 41.8795 41.8726C40.5545 43.1995 38.8148 44.0321 36.9502 44.2316Z" fill="#1C8ADB"/>
<path d="M34.7567 11.6342L34.2914 11.8029L9.03668 20.9021C8.85771 20.9574 8.70216 21.0706 8.59442 21.2238C8.48667 21.3771 8.43282 21.5617 8.4413 21.7489C8.44978 21.936 8.52011 22.1151 8.64127 22.2579C8.76244 22.4008 8.92758 22.4994 9.11082 22.5384L15.6482 24.328L16.8677 27.9073L18.0873 31.4867C18.1573 31.6621 18.2691 31.8178 18.413 31.9403C18.5569 32.0627 18.7285 32.1482 18.913 32.1892C19.0974 32.2303 19.289 32.2257 19.4713 32.1759C19.6535 32.1261 19.8209 32.0326 19.9587 31.9034L23.3361 28.7127L29.9681 33.2099C30.7785 33.7621 31.9341 33.353 32.1412 32.4429L36.5336 13.0352C36.7483 12.0739 35.7359 11.2839 34.7567 11.6342ZM31.5327 15.9422L20.1224 25.2689L19.5855 25.7086C19.4675 25.8021 19.3905 25.9378 19.3707 26.087L19.2505 27.079L18.9207 29.8657C18.9234 29.8996 18.9126 29.9332 18.8905 29.9591C18.8685 29.985 18.837 30.0011 18.8031 30.0038C18.7692 30.0065 18.7356 29.9956 18.7097 29.9736C18.6838 29.9515 18.6678 29.9201 18.6651 29.8862L17.737 27.102L16.7783 24.2513C16.7377 24.1232 16.7431 23.9849 16.7935 23.8603C16.8439 23.7357 16.9361 23.6326 17.0544 23.5687L28.9275 16.7629L31.162 15.4845C31.4867 15.2953 31.8191 15.707 31.5327 15.9422Z" fill="white"/>
</svg>
