<svg width="45" height="45" viewBox="0 0 45 45" fill="none" xmlns="http://www.w3.org/2000/svg">
<path d="M36.9502 44.2316C27.3474 45.2561 17.6628 45.2561 8.05997 44.2316C6.19519 44.0347 4.45425 43.2045 3.12739 41.8795C1.80052 40.5545 0.967917 38.8148 0.768377 36.9502C-0.256126 27.3474 -0.256126 17.6628 0.768377 8.05997C0.9653 6.19519 1.79546 4.45425 3.12046 3.12739C4.44547 1.80052 6.18524 0.967917 8.04975 0.768377C17.6526 -0.256126 27.3372 -0.256126 36.94 0.768377C38.8048 0.9653 40.5457 1.79546 41.8726 3.12046C43.1995 4.44547 44.0321 6.18524 44.2316 8.04975C45.2561 17.6526 45.2561 27.3372 44.2316 36.94C44.0347 38.8048 43.2045 40.5457 41.8795 41.8726C40.5545 43.1995 38.8148 44.0321 36.9502 44.2316Z" fill="#6F3FAA"/>
<path d="M35.4955 15.7121V15.6788C35.1938 14.4567 34.4063 13.1937 33.3734 12.1302C32.1667 10.8825 30.6301 9.90333 29.1626 9.5863H29.1319C24.7555 8.74772 20.2597 8.74772 15.8833 9.5863H15.8526C13.1272 10.1769 10.1692 13.025 9.50956 15.6788V15.7121C8.69912 19.3913 8.69912 23.2029 9.50956 26.8821V26.9128C9.97999 28.8047 11.6163 30.7938 13.5031 31.9954C14.1193 32.397 14.79 32.7078 15.4947 32.9184V35.879C15.4957 36.1156 15.5671 36.3466 15.6999 36.5424C15.8326 36.7383 16.0207 36.8902 16.2401 36.9788C16.4595 37.0673 16.7003 37.0886 16.9318 37.0398C17.1633 36.991 17.375 36.8744 17.54 36.7048L20.5416 33.5857C21.1909 33.6215 21.8455 33.6419 22.4948 33.6419C24.7178 33.6412 26.9358 33.4307 29.1192 33.013H29.1498C31.8676 32.4198 34.8282 29.5717 35.4827 26.9179V26.8872C36.2981 23.2073 36.3025 19.3939 35.4955 15.7121ZM33.1203 26.335C32.6806 28.0659 30.4358 30.2211 28.6487 30.6174C26.3275 31.0621 23.9651 31.2549 21.6026 31.1926C21.5796 31.1912 21.5565 31.1951 21.5353 31.204C21.514 31.2128 21.495 31.2264 21.4799 31.2438L19.2888 33.4936L16.9571 35.8841C16.9198 35.9235 16.8715 35.9509 16.8185 35.9625C16.7655 35.9742 16.7103 35.9697 16.6598 35.9496C16.6094 35.9295 16.5662 35.8947 16.5358 35.8498C16.5054 35.8048 16.4892 35.7518 16.4892 35.6975V30.7887C16.4893 30.7492 16.4755 30.711 16.4503 30.6806C16.4251 30.6502 16.39 30.6297 16.3512 30.6225C15.9784 30.534 15.6191 30.3965 15.2825 30.2134C13.7638 29.403 12.2324 27.7412 11.8796 26.335C11.1488 23.0092 11.1488 19.5645 11.8796 16.2387C12.3168 14.5155 14.5743 12.3654 16.3486 11.9666C20.4118 11.1891 24.5856 11.1891 28.6487 11.9666C29.633 12.1864 30.758 12.9355 31.6375 13.8559C32.361 14.605 32.9158 15.4692 33.1203 16.2464C33.85 19.5697 33.85 23.0117 33.1203 26.335Z" fill="white"/>
<path d="M28.7127 26.5907C28.3805 27.3487 27.8095 27.9772 27.0867 28.3803C26.8599 28.4766 26.6245 28.551 26.3836 28.6028C26.11 28.5209 25.8492 28.4647 25.6166 28.365C23.6785 27.6108 21.8744 26.5499 20.2732 25.2228C19.7975 24.8172 19.3507 24.379 18.936 23.9113C17.9119 22.7319 17.0519 21.4195 16.3794 20.0098C16.0521 19.3425 15.776 18.6522 15.4948 17.9645C15.2391 17.3381 15.6175 16.6861 16.0061 16.2183C16.3865 15.7844 16.8544 15.4359 17.379 15.1956C17.5636 15.1028 17.7749 15.0776 17.9762 15.1243C18.1775 15.171 18.356 15.2867 18.4809 15.4513C19.1342 16.1852 19.7099 16.9845 20.199 17.8366C20.3531 18.0844 20.4059 18.382 20.3464 18.6676C20.2868 18.9533 20.1196 19.205 19.8794 19.3706C19.7516 19.4601 19.6238 19.5624 19.5138 19.6621C19.4055 19.7424 19.312 19.841 19.2377 19.9536C19.1736 20.0589 19.1347 20.1776 19.1241 20.3005C19.1134 20.4233 19.1313 20.547 19.1764 20.6618C19.6698 22.0193 20.4189 23.1519 21.5387 23.9471C21.9177 24.215 22.326 24.4389 22.7557 24.6144C23.0363 24.767 23.3516 24.8445 23.671 24.8393C24.2283 24.7729 24.4124 24.1567 24.801 23.8397C24.9794 23.6936 25.2001 23.609 25.4304 23.5984C25.6607 23.5878 25.8883 23.6518 26.0793 23.7809C26.4935 24.0366 26.8924 24.3255 27.2912 24.6067C27.6857 24.8759 28.0655 25.1661 28.4289 25.476C28.5989 25.5994 28.7203 25.7785 28.7721 25.982C28.824 26.1856 28.803 26.4009 28.7127 26.5907Z" fill="white"/>
<path d="M23.2337 14.3391H22.9065C23.0113 14.3341 23.1213 14.3391 23.2337 14.3391Z" fill="white"/>
<path d="M28.8916 22.0015C28.636 22.0015 28.5107 21.7841 28.4928 21.5464C28.4596 21.0785 28.434 20.6081 28.3701 20.1428C28.2596 19.3577 27.9861 18.6044 27.5673 17.9312C27.1368 17.23 26.5639 16.6269 25.8857 16.161C25.2075 15.695 24.439 15.3766 23.63 15.2263C23.2619 15.1598 22.886 15.1445 22.5153 15.1061C22.2801 15.0806 21.9708 15.0652 21.9196 14.7738C21.912 14.7172 21.9165 14.6596 21.9329 14.6049C21.9493 14.5501 21.9772 14.4996 22.0147 14.4565C22.0522 14.4134 22.0985 14.3788 22.1504 14.3551C22.2024 14.3313 22.2588 14.3189 22.3159 14.3187C22.3772 14.3151 22.4387 14.3151 22.5 14.3187C23.6175 14.3281 24.7155 14.6131 25.6966 15.1482C26.6777 15.6834 27.5117 16.4522 28.1246 17.3867C28.6086 18.1399 28.9371 18.9822 29.0911 19.8641C29.1882 20.4163 29.224 20.9839 29.2675 21.5464C29.2762 21.6015 29.2731 21.6578 29.2584 21.7117C29.2437 21.7655 29.2177 21.8156 29.1822 21.8587C29.1466 21.9017 29.1023 21.9367 29.0523 21.9613C29.0022 21.9859 28.9474 21.9996 28.8916 22.0015Z" fill="white"/>
<path d="M27.5085 20.8075C27.507 20.8834 27.4967 20.9589 27.4778 21.0325C27.4555 21.1064 27.4109 21.1716 27.3502 21.2193C27.2895 21.267 27.2155 21.2949 27.1384 21.2991C27.0613 21.3032 26.9848 21.2836 26.9193 21.2428C26.8537 21.2019 26.8024 21.1419 26.7722 21.0708C26.744 20.9676 26.7311 20.8608 26.7338 20.7538C26.7398 20.1819 26.6266 19.6151 26.4015 19.0894C26.3503 18.9769 26.2941 18.8619 26.2302 18.7519C25.8642 18.1211 25.321 17.6117 24.668 17.287C24.2741 17.101 23.8557 16.9718 23.4255 16.9035C23.2363 16.8728 23.0471 16.8549 22.8579 16.8293C22.8087 16.8269 22.7605 16.8143 22.7163 16.7925C22.6721 16.7706 22.6328 16.7399 22.6009 16.7023C22.5691 16.6647 22.5452 16.6209 22.531 16.5737C22.5167 16.5265 22.5122 16.4769 22.5179 16.4279C22.5179 16.3778 22.5285 16.3283 22.5491 16.2826C22.5696 16.2369 22.5995 16.196 22.6369 16.1627C22.6744 16.1294 22.7184 16.1044 22.7662 16.0893C22.814 16.0742 22.8644 16.0693 22.9142 16.0751C23.6649 16.1041 24.4003 16.296 25.0694 16.6376C25.8865 17.0488 26.5531 17.7072 26.9741 18.5193C27.2113 18.9934 27.3702 19.5028 27.4446 20.0277C27.4584 20.0962 27.4686 20.1653 27.4753 20.2348C27.488 20.3882 27.4931 20.5416 27.5059 20.7308C27.5059 20.7487 27.5085 20.7717 27.5085 20.8075Z" fill="white"/>
<path d="M25.7572 20.4547C25.7427 20.5195 25.7092 20.5785 25.6609 20.624C25.6126 20.6696 25.5517 20.6997 25.4862 20.7103H25.4299C25.3462 20.7158 25.2629 20.6937 25.1928 20.6476C25.1227 20.6015 25.0695 20.5337 25.0413 20.4547C25.0254 20.4127 25.0151 20.3689 25.0106 20.3243C24.9972 20.1522 24.9716 19.9814 24.9339 19.8129C24.8579 19.472 24.6642 19.1687 24.3868 18.9565C24.2527 18.8602 24.1031 18.7875 23.9445 18.7417C23.7425 18.6829 23.5303 18.6982 23.3309 18.6497C23.2323 18.6322 23.1447 18.5764 23.0872 18.4944C23.0297 18.4125 23.007 18.3111 23.0241 18.2125C23.0431 18.118 23.096 18.0337 23.1727 17.9753C23.2494 17.917 23.3447 17.8886 23.4408 17.8954C24.6118 17.9798 25.4862 18.5423 25.7112 19.7976C25.7343 19.9141 25.7505 20.032 25.7597 20.1504C25.7741 20.2514 25.7732 20.3539 25.7572 20.4547Z" fill="white"/>
</svg>
