<svg width="46" height="45" viewBox="0 0 46 45" fill="none" xmlns="http://www.w3.org/2000/svg">
<g clip-path="url(#clip0_113_172)">
<path d="M19.3773 33.945C20.8135 32.6062 21.0347 30.5091 19.8713 29.261C18.7079 28.013 16.6005 28.0866 15.1642 29.4254C13.728 30.7643 13.5069 32.8613 14.6703 34.1094C15.8337 35.3574 17.9411 35.2838 19.3773 33.945Z" fill="white"/>
<path d="M38.381 33.9465C39.8172 32.6076 40.0384 30.5106 38.875 29.2625C37.7115 28.0145 35.6041 28.0881 34.1679 29.4269C32.7317 30.7657 32.5105 32.8628 33.6739 34.1109C34.8373 35.3589 36.9448 35.2853 38.381 33.9465Z" fill="white"/>
<path d="M4.30688 17.5593C4.30688 16.7305 3.63498 16.0586 2.80615 16.0586C1.97732 16.0586 1.30542 16.7305 1.30542 17.5593C1.30542 18.3882 1.97732 19.0601 2.80615 19.0601C3.63498 19.0601 4.30688 18.3882 4.30688 17.5593Z" fill="white"/>
<path d="M31.2823 31.3718C31.8158 28.7351 34.3066 26.6397 36.9837 26.6397C39.5616 26.6397 41.4196 28.583 41.3686 31.0817C44.1565 31.1547 44.9326 27.4835 44.9326 27.4835C45.1672 26.4569 45.5179 24.4557 45.8115 22.4913C45.9077 21.8848 45.8338 21.2635 45.5979 20.6966C44.8691 18.9954 43.9884 17.3634 42.9665 15.8204C41.9997 14.3781 40.3781 13.5238 38.5271 13.4931C37.4232 13.4755 36.3395 13.4649 35.5212 13.4649L35.5142 13.4579C35.4087 11.6931 34.122 10.3413 32.3159 10.1796C31.1408 10.075 26.4861 9.99854 24.2519 9.99854C23.3642 9.99854 22.0907 10.0108 20.8022 10.0319V10.0267H20.7917H5.30005C5.10288 10.0265 4.90762 10.0653 4.72544 10.1407C4.54326 10.2161 4.37772 10.3267 4.2383 10.4661C4.09888 10.6055 3.98831 10.771 3.91291 10.9532C3.83751 11.1354 3.79876 11.3307 3.79888 11.5278V11.5349C3.79888 11.9311 3.9563 12.3112 4.2365 12.5914C4.51671 12.8716 4.89675 13.029 5.29302 13.029H8.41577C8.79179 13.0567 9.14343 13.2256 9.40016 13.5017C9.65689 13.7778 9.79974 14.1408 9.80005 14.5179V14.5258C9.80063 14.7231 9.76228 14.9187 9.68721 15.1012C9.61214 15.2837 9.50181 15.4497 9.36254 15.5895C9.22328 15.7293 9.0578 15.8403 8.87559 15.9162C8.69337 15.992 8.49799 16.0311 8.30064 16.0313H6.69927C6.30137 16.0313 5.91976 16.1894 5.6384 16.4708C5.35704 16.7521 5.19898 17.1337 5.19898 17.5316C5.19886 17.7287 5.23758 17.9239 5.31293 18.106C5.38827 18.2882 5.49876 18.4537 5.63809 18.5931C5.77742 18.7325 5.94285 18.8431 6.12493 18.9185C6.30701 18.994 6.50217 19.0328 6.69927 19.0328H8.30064C8.69877 19.0328 9.0806 19.191 9.36212 19.4725C9.64365 19.754 9.80181 20.1358 9.80181 20.534C9.80181 20.9321 9.64365 21.3139 9.36212 21.5955C9.0806 21.877 8.69877 22.0352 8.30064 22.0352H2.31001C1.91203 22.0352 1.53033 22.1932 1.24883 22.4745C0.967332 22.7559 0.809071 23.1375 0.808838 23.5354C0.808838 23.9336 0.966997 24.3154 1.24852 24.5969C1.53005 24.8785 1.91187 25.0366 2.31001 25.0366H8.30064C8.69877 25.0366 9.0806 25.1948 9.36212 25.4763C9.64365 25.7578 9.80181 26.1397 9.80181 26.5378C9.80134 26.9356 9.64298 27.317 9.3615 27.5981C9.08003 27.8793 8.69847 28.0372 8.30064 28.0372H6.4479C6.05 28.0372 5.66839 28.1953 5.38703 28.4766C5.10567 28.758 4.94761 29.1396 4.94761 29.5375C4.94761 29.9355 5.10565 30.3172 5.38698 30.5987C5.66831 30.8802 6.04992 31.0384 6.4479 31.0387L12.3594 31.0343L12.8507 29.81C13.8571 27.9537 15.8592 26.6389 17.9792 26.6389C20.6572 26.6389 22.5591 28.7359 22.35 31.3744H31.2814M16.3927 16.7301H14.3783C14.3764 16.7302 14.3746 16.731 14.3731 16.7323C14.3717 16.7335 14.3707 16.7352 14.3704 16.7371L14.1849 18.0555C14.1846 18.0565 14.1846 18.0576 14.1848 18.0587C14.1851 18.0598 14.1855 18.0608 14.1862 18.0616C14.1869 18.0625 14.1878 18.0632 14.1888 18.0636C14.1898 18.0641 14.1909 18.0643 14.1919 18.0643H15.6914C15.765 18.0622 15.8381 18.0765 15.9054 18.1063C15.9728 18.1361 16.0326 18.1805 16.0806 18.2363C16.1286 18.2921 16.1636 18.358 16.1829 18.429C16.2022 18.5001 16.2054 18.5745 16.1923 18.647C16.1666 18.8062 16.0862 18.9515 15.965 19.0579C15.8437 19.1642 15.6891 19.225 15.5279 19.2297H14.0267C14.0249 19.2296 14.0231 19.2302 14.0217 19.2314C14.0202 19.2325 14.0192 19.2341 14.0188 19.2358L13.7499 21.151C13.7242 21.3102 13.6438 21.4555 13.5225 21.5619C13.4012 21.6683 13.2466 21.729 13.0854 21.7337C13.0118 21.7358 12.9387 21.7215 12.8714 21.6917C12.8041 21.6619 12.7443 21.6175 12.6963 21.5616C12.6484 21.5058 12.6136 21.4399 12.5943 21.3689C12.5751 21.2978 12.572 21.2234 12.5853 21.151L13.2832 16.1834C13.3108 16.0152 13.3961 15.8619 13.5243 15.7496C13.6526 15.6374 13.8159 15.5732 13.9863 15.5682H16.5553C16.6289 15.566 16.702 15.5804 16.7693 15.6102C16.8366 15.6399 16.8965 15.6844 16.9444 15.7402C16.9923 15.7961 17.0272 15.8619 17.0464 15.933C17.0656 16.004 17.0687 16.0785 17.0554 16.1509C17.0294 16.3093 16.949 16.4538 16.8281 16.5595C16.7072 16.6652 16.5532 16.7255 16.3927 16.7301ZM21.7769 15.9637C21.9862 16.1493 22.1334 16.3948 22.1988 16.6668C22.2718 16.975 22.2838 17.2945 22.2339 17.6072C22.1728 18.0939 21.9737 18.5529 21.66 18.93C21.4685 19.1564 21.2252 19.3334 20.9507 19.4459C20.9495 19.4472 20.9488 19.4489 20.9488 19.4507C20.9488 19.4525 20.9495 19.4543 20.9507 19.4556L21.45 20.8961C21.5844 21.2828 21.239 21.7337 20.8092 21.7337H20.7811C20.6768 21.7368 20.5743 21.7065 20.4883 21.6475C20.4024 21.5884 20.3375 21.5034 20.303 21.405L19.6992 19.6472C19.6983 19.6458 19.6971 19.6448 19.6958 19.644C19.6944 19.6432 19.6928 19.6428 19.6913 19.6428H18.4081C18.4063 19.6429 18.4046 19.6435 18.4031 19.6446C18.4017 19.6457 18.4007 19.6472 18.4001 19.6489L18.1892 21.1501C18.1635 21.3093 18.0831 21.4547 17.9618 21.561C17.8406 21.6674 17.686 21.7281 17.5248 21.7328C17.4512 21.7349 17.3781 21.7206 17.3108 21.6908C17.2434 21.661 17.1836 21.6166 17.1357 21.5608C17.0878 21.5049 17.0529 21.439 17.0337 21.368C17.0145 21.2969 17.0114 21.2225 17.0247 21.1501L17.7225 16.1825C17.7502 16.0143 17.8354 15.861 17.9637 15.7488C18.092 15.6365 18.2553 15.5724 18.4256 15.5673H20.412C20.412 15.5673 21.2838 15.54 21.7769 15.9637ZM27.2437 16.1096C27.2198 16.2583 27.1448 16.3941 27.0315 16.4934C26.9182 16.5927 26.7738 16.6494 26.6232 16.6536H24.3125C24.3108 16.6537 24.309 16.6544 24.3076 16.6555C24.3062 16.6566 24.3052 16.6581 24.3046 16.6598L24.1209 17.9641C24.1207 17.9651 24.1206 17.9662 24.1209 17.9673C24.1211 17.9684 24.1216 17.9694 24.1223 17.9702C24.1229 17.9711 24.1238 17.9718 24.1248 17.9722C24.1258 17.9727 24.1269 17.9729 24.128 17.9729H25.9227C25.9914 17.9708 26.0598 17.9842 26.1227 18.0119C26.1856 18.0397 26.2415 18.0812 26.2863 18.1333C26.3311 18.1855 26.3637 18.247 26.3817 18.3133C26.3997 18.3797 26.4026 18.4492 26.3903 18.5169C26.3664 18.6656 26.2913 18.8014 26.1781 18.9007C26.0648 19 25.9204 19.0567 25.7698 19.0609H23.9742C23.9724 19.061 23.9707 19.0617 23.9693 19.0628C23.9678 19.0639 23.9668 19.0654 23.9663 19.0671L23.7457 20.6368C23.7456 20.639 23.7464 20.6411 23.7479 20.6427C23.7494 20.6444 23.7514 20.6454 23.7536 20.6456H26.0625C26.1312 20.6436 26.1995 20.6569 26.2624 20.6847C26.3253 20.7125 26.3812 20.7539 26.426 20.8061C26.4709 20.8582 26.5035 20.9197 26.5214 20.9861C26.5394 21.0525 26.5424 21.122 26.53 21.1896C26.5061 21.3384 26.4311 21.4741 26.3178 21.5735C26.2045 21.6728 26.0601 21.7295 25.9095 21.7337H23.0443C22.967 21.7348 22.8904 21.7188 22.8199 21.687C22.7494 21.6552 22.6868 21.6083 22.6365 21.5496C22.5862 21.4909 22.5494 21.4218 22.5287 21.3473C22.5081 21.2728 22.5041 21.1947 22.5169 21.1185L23.2104 16.186C23.2381 16.0179 23.3233 15.8645 23.4516 15.7523C23.5799 15.64 23.7432 15.5759 23.9135 15.5708H26.7779C26.8459 15.5692 26.9135 15.5826 26.9757 15.6102C27.038 15.6378 27.0934 15.6788 27.1379 15.7303C27.1824 15.7818 27.215 15.8425 27.2333 15.9081C27.2516 15.9737 27.2551 16.0425 27.2437 16.1096ZM32.0434 16.1096C32.0195 16.2583 31.9445 16.3941 31.8312 16.4934C31.7179 16.5927 31.5735 16.6494 31.4229 16.6536H29.1123C29.1105 16.6537 29.1088 16.6544 29.1073 16.6555C29.1059 16.6566 29.1049 16.6581 29.1043 16.6598L28.9215 17.9641C28.9213 17.9651 28.9212 17.9662 28.9215 17.9673C28.9217 17.9684 28.9222 17.9694 28.9229 17.9702C28.9235 17.9711 28.9244 17.9718 28.9254 17.9722C28.9264 17.9727 28.9275 17.9729 28.9286 17.9729H30.7233C30.792 17.9708 30.8603 17.9842 30.9232 18.0119C30.9862 18.0397 31.0421 18.0812 31.0869 18.1333C31.1317 18.1855 31.1643 18.247 31.1823 18.3133C31.2003 18.3797 31.2032 18.4492 31.1909 18.5169C31.167 18.6656 31.0919 18.8014 30.9786 18.9007C30.8654 19 30.721 19.0567 30.5704 19.0609H28.7739C28.7721 19.061 28.7704 19.0617 28.769 19.0628C28.7675 19.0639 28.7665 19.0654 28.766 19.0671L28.5454 20.6368C28.5454 20.639 28.5462 20.6411 28.5476 20.6427C28.5491 20.6444 28.5511 20.6454 28.5533 20.6456H30.8622C30.9309 20.6436 30.9992 20.6569 31.0621 20.6847C31.125 20.7125 31.1809 20.7539 31.2257 20.8061C31.2706 20.8582 31.3032 20.9197 31.3212 20.9861C31.3391 21.0525 31.3421 21.122 31.3297 21.1896C31.3058 21.3384 31.2308 21.4741 31.1175 21.5735C31.0042 21.6728 30.8598 21.7295 30.7092 21.7337H27.844C27.7667 21.7348 27.6901 21.7188 27.6196 21.687C27.5491 21.6552 27.4865 21.6083 27.4362 21.5496C27.3859 21.4909 27.3491 21.4218 27.3284 21.3473C27.3078 21.2728 27.3038 21.1947 27.3167 21.1185L28.0101 16.186C28.0378 16.0179 28.123 15.8645 28.2513 15.7523C28.3796 15.64 28.5429 15.5759 28.7132 15.5708H31.5776C31.6456 15.5692 31.7132 15.5826 31.7755 15.6102C31.8377 15.6378 31.8931 15.6788 31.9376 15.7303C31.9821 15.7818 32.0147 15.8425 32.033 15.9081C32.0513 15.9737 32.0548 16.0425 32.0434 16.1096ZM35.3833 15.5462C36.1681 15.5462 37.1841 15.5567 38.2037 15.5734C39.4394 15.5937 40.5205 16.1614 41.1691 17.13C41.8619 18.1745 42.4847 19.2638 43.0333 20.3907C43.3233 20.9813 42.7898 21.7504 42.0911 21.7504H34.5984L35.3833 15.5462Z" fill="white"/>
<path d="M19.9419 18.5557H18.5532L18.8169 16.6537H20.2047C20.2047 16.6537 21.2233 16.5878 21.0563 17.6047C21.0607 17.6047 20.9438 18.5557 19.9419 18.5557Z" fill="white"/>
</g>
<defs>
<clipPath id="clip0_113_172">
<rect width="45" height="45" fill="white" transform="translate(0.830078)"/>
</clipPath>
</defs>
</svg>
