<svg width="29" height="36" viewBox="0 0 29 36" fill="none" xmlns="http://www.w3.org/2000/svg">
<path d="M17.9672 23.8374C17.6626 23.8374 17.3579 24.1144 17.3579 25.0422C17.3579 25.97 17.6626 26.247 17.9672 26.247C18.2719 26.247 18.5765 25.97 18.5765 25.0422C18.5765 24.1143 18.2719 23.8374 17.9672 23.8374Z" fill="white"/>
<path d="M10.863 19.2676C10.5583 19.2676 10.2537 19.5446 10.2537 20.4724C10.2537 21.4002 10.5583 21.6772 10.863 21.6772C11.1676 21.6772 11.4723 21.4002 11.4723 20.4724C11.4723 19.5446 11.1676 19.2676 10.863 19.2676Z" fill="white"/>
<path d="M24.9563 12.7716C21.904 9.40043 20.0901 6.4328 19.1058 4.53684C18.0397 2.48324 17.6904 1.20981 17.6877 1.19968L17.3704 0L16.2371 0.505501C16.1047 0.564545 12.9734 1.99252 11.2189 5.50147C10.3382 7.26301 10.162 9.22429 10.1694 10.5593C10.1737 11.3362 9.62322 12.0108 8.86057 12.1633C8.32586 12.2702 7.77582 12.1039 7.38988 11.718L5.27885 9.60698L4.55266 10.6083C4.47729 10.7123 2.70258 13.1598 2.37949 13.6489C0.80176 16.0372 -0.0209193 18.8193 0.000404229 21.6945C0.0289763 25.5344 1.53908 29.1321 4.25251 31.8247C6.9658 34.5172 10.575 36 14.4152 36C22.3636 35.9999 28.8301 29.5334 28.8301 21.585C28.8302 18.703 27.4182 15.4907 24.9563 12.7716ZM17.9672 27.7427C16.4993 27.7427 15.3914 26.7734 15.3914 25.0424C15.3914 23.3252 16.4992 22.342 17.9672 22.342C19.4351 22.342 20.543 23.3252 20.543 25.0424C20.543 26.7734 19.4351 27.7427 17.9672 27.7427ZM16.5547 17.9106H18.895L12.2756 27.6042H9.93526L16.5547 17.9106ZM8.28737 20.4725C8.28737 18.7553 9.39521 17.7721 10.8632 17.7721C12.3311 17.7721 13.4389 18.7553 13.4389 20.4725C13.4389 22.2035 12.3311 23.1729 10.8632 23.1729C9.39521 23.1729 8.28737 22.2035 8.28737 20.4725Z" fill="white"/>
</svg>
