<svg width="21" height="21" viewBox="0 0 21 21" fill="none" xmlns="http://www.w3.org/2000/svg">
<path fill-rule="evenodd" clip-rule="evenodd" d="M9.6816 11.3184L0.843934 8.3725C0.337976 8.20353 -0.00291152 7.72882 1.87442e-05 7.19552C0.00294901 6.66221 0.347743 6.19044 0.855655 6.02732L19.3876 0.0593509C19.8281 -0.0822784 20.3116 0.0339553 20.6388 0.361168C20.966 0.688381 21.0823 1.17187 20.9406 1.61239L14.9727 20.1443C14.8096 20.6523 14.3378 20.9971 13.8045 21C13.2712 21.0029 12.7965 20.662 12.6275 20.1561L9.6816 11.3184ZM1.97599 7.20528L10.4923 10.0447C10.7111 10.117 10.883 10.2889 10.9553 10.5077L13.7947 19.024L19.4081 1.59188L1.97599 7.20528Z" fill="white"/>
<path fill-rule="evenodd" clip-rule="evenodd" d="M10.7783 11.2568C10.4931 11.5429 10.0282 11.5429 9.74296 11.2568C9.45677 10.9715 9.45677 10.5066 9.74296 10.2214L19.3161 0.648235C19.6013 0.362047 20.0663 0.362047 20.3515 0.648235C20.6377 0.933448 20.6377 1.39838 20.3515 1.68359L10.7783 11.2568Z" fill="white"/>
</svg>
