<svg width="18" height="18" viewBox="0 0 18 18" fill="none" xmlns="http://www.w3.org/2000/svg">
<path d="M12.4132 9C14.142 7.58821 15.3131 5.60827 15.7177 3.41325C15.7794 2.993 15.7499 2.56439 15.6311 2.15659C15.5122 1.74878 15.307 1.37136 15.0292 1.05C14.7471 0.721453 14.3975 0.45759 14.0041 0.276393C13.6108 0.0951959 13.183 0.000923279 12.75 0L5.25374 0C4.82002 0.000235381 4.39148 0.0941813 3.99744 0.275407C3.60341 0.456633 3.25318 0.720859 2.97074 1.05C2.69227 1.37196 2.48665 1.75028 2.36795 2.15907C2.24925 2.56786 2.22026 2.99747 2.28299 3.4185C2.68567 5.61188 3.85571 7.59039 5.58374 9C3.85569 10.4101 2.68589 12.3892 2.28374 14.583C2.22114 15.0037 2.25011 15.433 2.36868 15.8415C2.48724 16.2501 2.69261 16.6282 2.97074 16.95C3.25318 17.2791 3.60341 17.5434 3.99744 17.7246C4.39148 17.9058 4.82002 17.9998 5.25374 18H12.75C13.1837 17.9996 13.6122 17.9056 14.0062 17.7244C14.4002 17.5432 14.7504 17.279 15.033 16.95C15.3112 16.6282 15.5167 16.2501 15.6356 15.8416C15.7544 15.4332 15.7837 15.0038 15.7215 14.583C15.315 12.3888 14.1426 10.4103 12.4132 9ZM13.371 15.4193C13.3024 15.521 13.2099 15.6043 13.1017 15.662C12.9934 15.7196 12.8727 15.7499 12.75 15.75H5.24999C5.12721 15.7501 5.00629 15.72 4.89785 15.6624C4.78941 15.6048 4.69676 15.5215 4.62804 15.4198C4.55932 15.318 4.51663 15.201 4.50372 15.0789C4.49081 14.9568 4.50807 14.8334 4.55399 14.7195C5.3338 13.0409 6.5195 11.583 8.00399 10.4775L8.52899 10.0583C8.6617 9.95269 8.82628 9.89522 8.99586 9.89522C9.16544 9.89522 9.33002 9.95269 9.46274 10.0583L9.98024 10.4715C11.4646 11.5809 12.6522 13.0395 13.4377 14.718C13.4849 14.8314 13.5035 14.9547 13.4918 15.0769C13.4802 15.1992 13.4387 15.3168 13.371 15.4193ZM11.5117 14.25H6.48674C7.1606 13.2591 7.98884 12.3825 8.93999 11.6535L8.99999 11.604L9.05324 11.6453C10.004 12.3795 10.8336 13.2584 11.5117 14.25Z" fill="url(#paint0_linear_186_298)"/>
<defs>
<linearGradient id="paint0_linear_186_298" x1="9.43885" y1="0" x2="9.43885" y2="26.55" gradientUnits="userSpaceOnUse">
<stop stop-color="#ADC7E6"/>
<stop offset="0.394068" stop-color="#7E9DC1"/>
<stop offset="1" stop-color="#5D84AD"/>
</linearGradient>
</defs>
</svg>
